<svg width="207" height="249" viewBox="0 0 207 249" fill="none" xmlns="http://www.w3.org/2000/svg">
<path d="M67.5249 184.194L54.1641 158.836L62.425 183.706C62.5303 184.022 62.5303 184.365 62.425 184.682L54.1641 209.551L67.5249 184.194Z" fill="#DF1800"/>
<path d="M66.9533 183.776L54.1129 158.769C53.768 158.097 54.4905 157.38 55.1599 157.729L105.862 184.197L67.642 184.197C67.3518 184.197 67.0859 184.034 66.9533 183.776Z" fill="#F31500"/>
<path d="M66.9533 184.618L54.1129 209.626C53.768 210.297 54.4905 211.015 55.1599 210.665L105.862 184.198L67.642 184.198C67.3518 184.198 67.0859 184.36 66.9533 184.618Z" fill="#C30000"/>
<path d="M82.5249 89.5921L69.1641 64.2344L77.425 89.104C77.5303 89.4209 77.5303 89.7633 77.425 90.0802L69.1641 114.95L82.5249 89.5921Z" fill="#DF1800"/>
<path d="M81.9533 89.1746L69.1129 64.1675C68.768 63.4957 69.4905 62.7781 70.1599 63.1275L120.862 89.5952L82.642 89.5952C82.3518 89.5952 82.0859 89.4328 81.9533 89.1746Z" fill="#F31500"/>
<path d="M81.9533 90.0168L69.1129 115.024C68.768 115.696 69.4905 116.413 70.1599 116.064L120.862 89.5963L82.642 89.5963C82.3518 89.5963 82.0859 89.7586 81.9533 90.0168Z" fill="#C30000"/>
<path d="M85.6822 233.595L78.6157 220.184L82.9085 233.107C83.0138 233.424 83.0138 233.766 82.9085 234.083L78.6157 247.007L85.6822 233.595Z" fill="#DF1800"/>
<path d="M85.2781 233.174L79.1129 221.167C78.768 220.496 79.4905 219.778 80.1599 220.128L105.959 233.595L85.9668 233.595C85.6766 233.595 85.4107 233.433 85.2781 233.174Z" fill="#F31500"/>
<path d="M85.2781 234.017L79.1129 246.024C78.768 246.696 79.4905 247.413 80.1599 247.064L105.959 233.596L85.9668 233.596C85.6766 233.596 85.4107 233.759 85.2781 234.017Z" fill="#C30000"/>
<path d="M131.682 14.5952L124.616 1.18359L128.909 14.1071C129.014 14.424 129.014 14.7664 128.909 15.0833L124.616 28.0068L131.682 14.5952Z" fill="#DF1800"/>
<path d="M131.278 14.1744L125.113 2.16746C124.768 1.49572 125.491 0.778072 126.16 1.12751L151.959 14.595L131.967 14.595C131.677 14.595 131.411 14.4326 131.278 14.1744Z" fill="#F31500"/>
<path d="M131.278 15.017L125.113 27.0239C124.768 27.6957 125.491 28.4133 126.16 28.0639L151.959 14.5965L131.967 14.5965C131.677 14.5965 131.411 14.7588 131.278 15.017Z" fill="#C30000"/>
<path d="M50.8402 38.5971L40.8687 19.6719L46.9929 38.1089C47.0982 38.4258 47.0982 38.7683 46.9929 39.0852L40.8687 57.5222L50.8402 38.5971Z" fill="#DF1800"/>
<path d="M50.359 38.1745L41.1129 20.1675C40.768 19.4957 41.4905 18.7781 42.1599 19.1275L79.4526 38.595L51.0477 38.595C50.7574 38.595 50.4916 38.4327 50.359 38.1745Z" fill="#F31500"/>
<path d="M50.359 39.0169L41.1129 57.0239C40.768 57.6957 41.4905 58.4133 42.1599 58.0639L79.4526 38.5964L51.0477 38.5964C50.7574 38.5964 50.4916 38.7587 50.359 39.0169Z" fill="#C30000"/>
<path d="M7.68219 142.595L0.615723 129.184L4.90853 142.107C5.01379 142.424 5.01379 142.766 4.90853 143.083L0.615723 156.007L7.68219 142.595Z" fill="#DF1800"/>
<path d="M7.27812 142.174L1.11292 130.167C0.768005 129.496 1.4905 128.778 2.1599 129.128L27.9586 142.595L7.96683 142.595C7.67657 142.595 7.4107 142.433 7.27812 142.174Z" fill="#F31500"/>
<path d="M7.27811 143.017L1.11292 155.024C0.768005 155.696 1.4905 156.413 2.1599 156.064L27.9586 142.596L7.96683 142.596C7.67657 142.596 7.4107 142.759 7.27811 143.017Z" fill="#C30000"/>
<path d="M151.572 136.519L132.332 100.004L144.228 135.816C144.379 136.272 144.379 136.766 144.228 137.222L132.332 173.034L151.572 136.519Z" fill="#DF1800"/>
<path d="M150.751 135.909L132.261 99.8985C131.764 98.9312 132.805 97.8978 133.768 98.401L206.78 136.514L151.743 136.514C151.325 136.514 150.942 136.281 150.751 135.909Z" fill="#F31500"/>
<path d="M150.75 137.122L132.26 173.133C131.763 174.1 132.804 175.133 133.767 174.63L206.779 136.517L151.742 136.517C151.324 136.517 150.941 136.751 150.75 137.122Z" fill="#C30000"/>
<path d="M158.639 51.0112L147.012 28.9453L154.18 50.5231C154.285 50.84 154.285 51.1825 154.18 51.4993L147.012 73.0772L158.639 51.0112Z" fill="#DF1800"/>
<path d="M158.114 50.5923L147.113 29.1675C146.768 28.4957 147.491 27.7781 148.16 28.1275L192 51.0129L158.803 51.0129C158.512 51.0129 158.247 50.8506 158.114 50.5923Z" fill="#F31500"/>
<path d="M158.114 51.435L147.113 72.8599C146.768 73.5316 147.491 74.2493 148.16 73.8998L192 51.0144L158.803 51.0144C158.512 51.0144 158.247 51.1768 158.114 51.435Z" fill="#C30000"/>
</svg>
